# xmcd
#
# Track frame offsets:
#	150
#	22896
#	39885
#	55832
#	71947
#	89677
#	99658
#	117780
#	131652
#	154316
#	173202
#	193026
#
# Disc length: 2737 seconds
#
# Revision: 0
# Processed by: cddbd v1.5.2PL0 Copyright (c) Steve Scherf et al.
# Submitted via: audiograbber 1.83.01
#
DISCID=a30aaf0c
DTITLE=Bob Lenox - Seasons of Souls
DYEAR=2008
DGENRE=Blues
TTITLE0=That´s not me
TTITLE1=Life is fine
TTITLE2=In the middle of my dreams
TTITLE3=Sunshine
TTITLE4=Angels on my shoulder
TTITLE5=Sister fly
TTITLE6=Dear Mama
TTITLE7=There is no right
TTITLE8=Lonesome Cowboy
TTITLE9=Sanctuary
TTITLE10=36 seconds (version cajun)
TTITLE11=36 seconds (version rock)
EXTD=
EXTT0=
EXTT1=
EXTT2=
EXTT3=
EXTT4=
EXTT5=
EXTT6=
EXTT7=
EXTT8=
EXTT9=
EXTT10=
EXTT11=
PLAYORDER=
